# xmcd CD database file
#
# Track frame offsets:
#	150
#	18765
#	33880
#	49045
#	63017
#	79397
#	96570
#	110257
#	126512
#	139740
#	153067
#	168162
#	185417
#	198837
#	213410
#	225022
#	238842
#	255647
#
# Disc length: 3644 seconds
#
# Revision: 0
# Processed by: cddbd v1.5.2PL0 Copyright (c) Steve Scherf et al.
# Submitted via: CDex 1.70beta3
#
DISCID=e20e3a12
DTITLE=Various Artist - ムード歌謡名曲集
DYEAR=2009
DGENRE=Blues
TTITLE0=沢ひろし - 抱擁
TTITLE1=敏いとうとハッピー and ブルー - 射手座の女
TTITLE2=三島敏夫 - 夜霧よ今夜も有難う
TTITLE3=沢ひろし - すきま風
TTITLE4=三島敏夫 - 夜の銀狐
TTITLE5=敏いとうとハッピー and ブルー - わたし祈ってます
TTITLE6=和田弘とマヒナスターズ - 知りすぎたのね
TTITLE7=沢ひろし - ブランデーグラス
TTITLE8=安倍律子・和田弘とマヒナスターズ - 愛して愛して愛しちゃったのよ
TTITLE9=安倍律子・和田弘とマヒナスターズ - 赤坂の夜は更けて
TTITLE10=敏いとうとハッピー and ブルー - 足手まとい
TTITLE11=沢ひろし - うしろ姿
TTITLE12=和田弘とマヒナスターズ - つかれたわけじゃないわ
TTITLE13=敏いとうとハッピー and ブルー - 星降る街角
TTITLE14=三島敏夫 - そして神戸
TTITLE15=敏いとうとハッピー and ブルー - 献身
TTITLE16=沢ひろし - 生命のブルース
TTITLE17=沢ひろしとTOKYO99 - 愛のふれあい
EXTD=YEAR: 2009
EXTT0=
EXTT1=
EXTT2=
EXTT3=
EXTT4=
EXTT5=
EXTT6=
EXTT7=
EXTT8=
EXTT9=
EXTT10=
EXTT11=
EXTT12=
EXTT13=
EXTT14=
EXTT15=
EXTT16=
EXTT17=
PLAYORDER=
